<svg width="700" height="250" viewBox="0 0 700 250" fill="none" xmlns="http://www.w3.org/2000/svg">
<path d="M154.37 21.9656C127.186 34.7247 58.7384 55 0.000976562 55V238.87C29.8554 238.87 139.322 261.521 188.593 238.87C237.865 216.218 322.331 226.789 380.705 238.87C439.079 250.951 536.166 256.236 572.816 238.87C609.467 221.504 681.312 238.87 700.001 238.87V55C638.836 55 627.428 25.1554 595.875 32.8108C564.321 40.4663 532.768 -3.87759 475.001 0.275164C417.234 4.42792 428.399 12.3963 412.38 18.7758C396.36 25.1554 356.312 32.8108 318.691 25.1554C281.069 17.4999 241.263 8.20313 228.399 9.20652C215.535 10.2099 181.555 9.20652 154.37 21.9656Z" fill="#DCD1AC"/>
</svg>
