<svg width="1440" height="651" viewBox="0 0 1440 651" fill="none" xmlns="http://www.w3.org/2000/svg">
<path d="M-0.000976562 0H1440V514.505C1440 514.505 1440 609 1334.5 609C1229 609 1103 628.5 1103 581C1103 533.5 1181.5 545.5 1230.5 545.5C1397.31 545.5 1263.09 458.367 1092 458.367C1027.13 458.367 901.068 549.002 861.148 592.524C811.247 646.927 717.85 649.235 642.999 650.5L641.526 650.525C566.155 651.802 414.794 654.365 430.573 592.524C447.682 525.47 597.5 585.284 642.999 559.208C721 514.505 530 514.505 460.499 514.505C432.941 514.505 311.081 518.709 330.5 473C349.5 428.276 665.597 415.835 786 545.5C812 573.5 843.5 545.5 800.97 505.858C629.5 346.03 319.5 411 228.999 418.725C155.766 424.977 139.751 482.18 228.999 499C359 523.5 369.5 592.524 313.5 581C257.5 569.476 -0.000976562 618 -0.000976562 559.208V0Z" fill="#D9D9D9"/>
</svg>
